<?xml version="1.0" encoding="utf-8"?>
<!-- Generated by IcoMoon.io -->
<!DOCTYPE svg PUBLIC "-//W3C//DTD SVG 1.1//EN" "http://www.w3.org/Graphics/SVG/1.1/DTD/svg11.dtd">
<svg version="1.1" xmlns="http://www.w3.org/2000/svg" xmlns:xlink="http://www.w3.org/1999/xlink" width="12" height="12" viewBox="0 0 12 12">
<path d="M9.604 9.535c-1.25-0.005-1.916-0.616-2.379-1.693l-0.132-0.294-1.141-2.602c-0.378-0.921-1.317-1.543-2.377-1.543-1.434 0-2.597 1.163-2.597 2.598s1.163 2.598 2.597 2.598c1 0 1.87-0.565 2.304-1.395l0.461 1.064c-0.655 0.799-1.651 1.308-2.765 1.308-1.975 0-3.575-1.6-3.575-3.575s1.601-3.576 3.575-3.576c1.49 0 2.693 0.796 3.305 2.206 0.046 0.109 0.646 1.513 1.17 2.707 0.324 0.739 0.601 1.23 1.497 1.26 0.881 0.030 1.485-0.506 1.485-1.184 0-0.662-0.461-0.821-1.239-1.080-1.399-0.461-2.121-0.924-2.121-2.033 0-1.082 0.736-1.804 1.933-1.804 0.779 0 1.342 0.347 1.732 1.038l-0.765 0.391c-0.288-0.403-0.606-0.563-1.010-0.563-0.561 0-0.962 0.391-0.962 0.91 0 0.737 0.66 0.849 1.582 1.151 1.242 0.404 1.819 0.866 1.819 2.020 0 1.211-1.039 2.093-2.396 2.091z" fill="#000000"></path>
</svg>
