<?xml version="1.0" encoding="utf-8"?>
<!-- Generated by IcoMoon.io -->
<!DOCTYPE svg PUBLIC "-//W3C//DTD SVG 1.1//EN" "http://www.w3.org/Graphics/SVG/1.1/DTD/svg11.dtd">
<svg version="1.1" xmlns="http://www.w3.org/2000/svg" xmlns:xlink="http://www.w3.org/1999/xlink" width="448" height="448" viewBox="0 0 448 448"><g id="icomoon-ignore">
</g>
<path d="M0 224q0-52.25 25.75-96.375t69.875-69.875 96.375-25.75 96.375 25.75 69.875 69.875 25.75 96.375-25.75 96.375-69.875 69.875-96.375 25.75-96.375-25.75-69.875-69.875-25.75-96.375zM59.25 162.5q0 7.75 5.125 13t12.875 5.25q2.75 0 10-2 33.25-9.25 76.75-9.25 39.75 0 77.375 8.5t63.375 23.75q5.25 3 10 3 7.25 0 12.625-5.125t5.375-12.875q0-11.75-10-17.5-31.5-18.25-73.25-27.625t-85.75-9.375q-51 0-91 11.75-5.75 1.75-9.625 6.375t-3.875 12.125zM72.25 224.75q0 6.25 4.375 10.625t10.625 4.375q1.75 0 9.25-2 30.5-8.25 62.75-8.25 69.75 0 122 31 6 3.25 9.5 3.25 6.25 0 10.625-4.375t4.375-10.625q0-10-8.75-15.25-59.25-35.25-137-35.25-38.25 0-75.75 10.5-12 3.25-12 16zM80.25 282.5q0 5 3.375 8.625t8.875 3.625q1.25 0 9.25-2 33-6.75 60.75-6.75 56.5 0 99.25 25.75 4.75 2.75 8.25 2.75 4.75 0 8.25-3.375t3.5-8.625q0-8-7.5-12.75-48.25-28.75-111.75-28.75-33.25 0-71.75 8.5-10.5 2.25-10.5 13z"></path>
</svg>
