<?xml version="1.0" encoding="utf-8"?>
<!-- Generated by IcoMoon.io -->
<!DOCTYPE svg PUBLIC "-//W3C//DTD SVG 1.1//EN" "http://www.w3.org/Graphics/SVG/1.1/DTD/svg11.dtd">
<svg version="1.1" xmlns="http://www.w3.org/2000/svg" xmlns:xlink="http://www.w3.org/1999/xlink" width="12" height="12" viewBox="0 0 12 12">
<path d="M0.181 8.545q0-1.567 0.174-2.344 0.094-0.395 0.388-0.663t0.69-0.315q1.225-0.134 3.71-0.134t3.717 0.134q0.388 0.047 0.686 0.315t0.385 0.663q0.174 0.75 0.174 2.344 0 1.567-0.174 2.344-0.094 0.395-0.388 0.663t-0.683 0.308q-1.232 0.141-3.717 0.141t-3.717-0.141q-0.388-0.040-0.686-0.308t-0.385-0.663q-0.174-0.75-0.174-2.344zM0.924 6.877h0.703v3.81h0.67v-3.81h0.717v-0.629h-2.089v0.629zM1.781 0h0.71l0.475 1.761 0.455-1.761h0.683l-0.81 2.672v1.815h-0.67v-1.815q-0.094-0.496-0.408-1.42-0.248-0.69-0.435-1.252zM3.1 9.998q0 0.328 0.054 0.489 0.080 0.248 0.388 0.248 0.321 0 0.683-0.408v0.362h0.596v-3.308h-0.596v2.531q-0.201 0.281-0.382 0.281-0.121 0-0.141-0.141-0.007-0.020-0.007-0.234v-2.438h-0.596v2.618zM4.112 3.402v-1.172q0-0.536 0.188-0.783 0.254-0.342 0.703-0.342 0.462 0 0.71 0.342 0.188 0.248 0.188 0.783v1.172q0 0.542-0.188 0.79-0.248 0.342-0.71 0.342-0.449 0-0.703-0.342-0.188-0.254-0.188-0.79zM4.714 3.516q0 0.469 0.288 0.469t0.288-0.469v-1.406q0-0.462-0.288-0.462t-0.288 0.462v1.406zM5.344 10.688h0.596v-0.321q0.301 0.368 0.623 0.368 0.362 0 0.475-0.368 0.060-0.181 0.060-0.67v-1.319q0-0.489-0.060-0.663-0.114-0.375-0.475-0.375-0.335 0-0.623 0.362v-1.453h-0.596v4.44zM5.94 10.045v-2.016q0.147-0.147 0.301-0.147 0.261 0 0.261 0.449v1.413q0 0.449-0.261 0.449-0.154 0-0.301-0.147zM6.395 3.783v-2.638h0.609v2.458q0 0.221 0.007 0.234 0.020 0.147 0.141 0.147 0.181 0 0.382-0.288v-2.551h0.609v3.342h-0.609v-0.368q-0.355 0.415-0.69 0.415-0.308 0-0.395-0.248-0.054-0.161-0.054-0.502zM7.567 9.616q0 0.529 0.194 0.777 0.261 0.342 0.723 0.342 0.482 0 0.723-0.355 0.121-0.181 0.141-0.362 0.013-0.060 0.013-0.388v-0.087h-0.609q0 0.342-0.013 0.408-0.047 0.241-0.268 0.241-0.308 0-0.308-0.462v-0.583h1.199v-0.69q0-0.529-0.181-0.777-0.261-0.342-0.71-0.342-0.455 0-0.717 0.342-0.188 0.248-0.188 0.777v1.158zM8.163 8.645v-0.308q0-0.455 0.301-0.455t0.301 0.455v0.308h-0.603z" fill="#000000"></path>
</svg>
